<svg xmlns="http://www.w3.org/2000/svg" xmlns:xlink="http://www.w3.org/1999/xlink" viewBox="0 0 56.04 63.6"><defs><style>.cls-1{fill:none;}.cls-2{clip-path:url(#clip-path);}.cls-3{fill:#fff;}</style><clipPath id="clip-path" transform="translate(0 0)"><rect class="cls-1" width="56.04" height="63.6"/></clipPath></defs><title>logo-1979</title><g id="Capa_2" data-name="Capa 2"><g id="Capa_1-2" data-name="Capa 1"><g class="cls-2"><path class="cls-3" d="M7.35,1.87A2.81,2.81,0,0,0,10.16.26h1.21V13.11H10V2.17A3.38,3.38,0,0,1,7.35,3Z" transform="translate(0 0)"/><path class="cls-3" d="M23.44,4.34a3.07,3.07,0,1,0-6.13,0,3.07,3.07,0,1,0,6.13,0M17.86,9.68a1.91,1.91,0,0,0-.15.72c0,.94.79,1.73,2.44,1.73,2.3,0,3.43-1.91,3.43-5.53A3.49,3.49,0,0,1,20.3,8.67a4.14,4.14,0,0,1-4.35-4.28A4.36,4.36,0,0,1,20.43,0C23.27,0,25,2,25,5.8a12.56,12.56,0,0,1-.73,4.57,4.32,4.32,0,0,1-4.08,3c-2.08,0-3.78-1.19-3.78-3a2.7,2.7,0,0,1,.17-.92Z" transform="translate(0 0)"/></g><polygon class="cls-3" points="27.98 0.26 27.98 1.47 34.85 1.47 29.63 13.11 30.99 13.11 36.25 1.32 36.25 0.26 27.98 0.26"/><g class="cls-2"><path class="cls-3" d="M47.2,4.34a3.07,3.07,0,1,0-6.13,0,3.07,3.07,0,1,0,6.13,0M41.62,9.68a1.91,1.91,0,0,0-.15.72c0,.94.79,1.73,2.44,1.73,2.3,0,3.43-1.91,3.43-5.53a3.49,3.49,0,0,1-3.29,2.08A4.14,4.14,0,0,1,39.7,4.39,4.36,4.36,0,0,1,44.19,0C47,0,48.74,2,48.74,5.8A12.56,12.56,0,0,1,48,10.38a4.32,4.32,0,0,1-4.08,3c-2.08,0-3.78-1.19-3.78-3a2.7,2.7,0,0,1,.17-.92Z" transform="translate(0 0)"/><path class="cls-3" d="M38.7,62.83h.77a5.13,5.13,0,0,0,3.77-1.23,5.14,5.14,0,0,0,1.23-3.77V41.2A7.9,7.9,0,0,0,44,39.13a3.19,3.19,0,0,0-1-1.28,5.23,5.23,0,0,0-3.55-1H38.7v-.73H56v.73h-.77A5.12,5.12,0,0,0,51.51,38a5.16,5.16,0,0,0-1.22,3.78v16a4.38,4.38,0,0,0,5,5H56v.77H38.7Z" transform="translate(0 0)"/><path class="cls-3" d="M19.35,62.83h.77a5.13,5.13,0,0,0,3.77-1.23,5.13,5.13,0,0,0,1.23-3.77V41.2a7.9,7.9,0,0,0-.48-2.07,3.2,3.2,0,0,0-1-1.28,5.23,5.23,0,0,0-3.55-1h-.77v-.73H36.69v.73h-.77A5.13,5.13,0,0,0,32.16,38a5.16,5.16,0,0,0-1.22,3.78v16a5.14,5.14,0,0,0,1.23,3.77,5.1,5.1,0,0,0,3.75,1.23h.77v.77H19.35Z" transform="translate(0 0)"/><path class="cls-3" d="M0,62.83H.77A5.13,5.13,0,0,0,4.54,61.6a5.14,5.14,0,0,0,1.23-3.77V41.2a7.91,7.91,0,0,0-.48-2.07,3.22,3.22,0,0,0-1-1.28,5.22,5.22,0,0,0-3.55-1H0v-.73H17.34v.73h-.77A5.13,5.13,0,0,0,12.81,38a5.16,5.16,0,0,0-1.22,3.78v16a5.13,5.13,0,0,0,1.23,3.77,5.1,5.1,0,0,0,3.75,1.23h.77v.77H0Z" transform="translate(0 0)"/></g></g></g></svg>