<svg xmlns="http://www.w3.org/2000/svg" xmlns:xlink="http://www.w3.org/1999/xlink" viewBox="0 0 56.04 56.91"><defs><style>.cls-1{fill:none;}.cls-2{clip-path:url(#clip-path);}</style><clipPath id="clip-path"><rect class="cls-1" width="56.04" height="56.91"/></clipPath></defs><title>logo-1979-negro</title><g id="Capa_2" data-name="Capa 2"><g id="Capa_1-2" data-name="Capa 1"><g class="cls-2"><path d="M38.7,26.75h.77a5.13,5.13,0,0,0,3.77-1.23,5.13,5.13,0,0,0,1.23-3.77V5.12A7.92,7.92,0,0,0,44,3.05a3.19,3.19,0,0,0-1-1.28,5.23,5.23,0,0,0-3.55-1H38.7V0H56V.73h-.77a5.12,5.12,0,0,0-3.76,1.22,5.16,5.16,0,0,0-1.22,3.78v16a5.13,5.13,0,0,0,1.23,3.77,5.1,5.1,0,0,0,3.75,1.23H56v.77H38.7Z"/><path d="M19.35,26.75h.77a5.13,5.13,0,0,0,3.77-1.23,5.12,5.12,0,0,0,1.23-3.77V5.12a7.92,7.92,0,0,0-.48-2.07,3.19,3.19,0,0,0-1-1.28,5.23,5.23,0,0,0-3.55-1h-.77V0H36.69V.73h-.77a5.13,5.13,0,0,0-3.76,1.22,5.16,5.16,0,0,0-1.22,3.78v16a5.13,5.13,0,0,0,1.23,3.77,5.11,5.11,0,0,0,3.75,1.23h.77v.77H19.35Z"/><path d="M0,26.75H.77a5.14,5.14,0,0,0,3.77-1.23,5.13,5.13,0,0,0,1.23-3.77V5.12a7.89,7.89,0,0,0-.48-2.07,3.21,3.21,0,0,0-1-1.28A5.23,5.23,0,0,0,.77.73H0V0H17.34V.73h-.77a5.12,5.12,0,0,0-3.76,1.22,5.16,5.16,0,0,0-1.22,3.78v16a5.12,5.12,0,0,0,1.23,3.77,5.1,5.1,0,0,0,3.75,1.23h.77v.77H0Z"/><path d="M10.79,47.32A2.34,2.34,0,0,0,13.13,46h1V56.7H13V47.57a2.83,2.83,0,0,1-2.22.73Z"/><path d="M24.21,49.38A2.56,2.56,0,1,0,21.65,52a2.5,2.5,0,0,0,2.56-2.64m-4.66,4.46a1.58,1.58,0,0,0-.12.6c0,.78.66,1.44,2,1.44,1.91,0,2.86-1.59,2.86-4.61A2.91,2.91,0,0,1,21.59,53,3.45,3.45,0,0,1,18,49.42a3.64,3.64,0,0,1,3.74-3.66c2.38,0,3.8,1.7,3.8,4.84a10.47,10.47,0,0,1-.61,3.81,3.6,3.6,0,0,1-3.4,2.5c-1.73,0-3.15-1-3.15-2.53a2.22,2.22,0,0,1,.14-.77Z"/></g><polygon points="27.99 45.98 27.99 46.99 33.72 46.99 29.36 56.7 30.5 56.7 34.88 46.87 34.88 45.98 27.99 45.98"/><g class="cls-2"><path d="M44,49.38A2.56,2.56,0,1,0,41.45,52,2.5,2.5,0,0,0,44,49.38m-4.66,4.46a1.56,1.56,0,0,0-.12.6c0,.78.66,1.44,2,1.44,1.92,0,2.87-1.59,2.87-4.61A2.91,2.91,0,0,1,41.39,53a3.45,3.45,0,0,1-3.63-3.57,3.64,3.64,0,0,1,3.74-3.66c2.37,0,3.8,1.7,3.8,4.84a10.47,10.47,0,0,1-.61,3.81,3.6,3.6,0,0,1-3.4,2.5c-1.73,0-3.16-1-3.16-2.53a2.25,2.25,0,0,1,.14-.77Z"/></g></g></g></svg>