<svg id="Capa_1" data-name="Capa 1" xmlns="http://www.w3.org/2000/svg" xmlns:xlink="http://www.w3.org/1999/xlink" viewBox="0 0 56.04 28.45"><defs><style>.cls-1{fill:none;}.cls-2{clip-path:url(#clip-path);}</style><clipPath id="clip-path"><rect class="cls-1" width="56.04" height="56.91"/></clipPath></defs><title>cosa</title><g id="Capa_1-2" data-name="Capa 1-2"><g class="cls-2"><path d="M38.7,26.75h.77a5.13,5.13,0,0,0,3.77-1.23,5.13,5.13,0,0,0,1.23-3.77V5.12A7.77,7.77,0,0,0,44,3.05a3.15,3.15,0,0,0-1-1.28,5.23,5.23,0,0,0-3.55-1H38.7V0H56V.73h-.77A5.14,5.14,0,0,0,51.47,2a5.21,5.21,0,0,0-1.22,3.78v16a5.13,5.13,0,0,0,1.23,3.77,5.09,5.09,0,0,0,3.75,1.23H56v.77H38.7Z"/><path d="M19.35,26.75h.77a5.13,5.13,0,0,0,3.77-1.23,5.13,5.13,0,0,0,1.23-3.77V5.12a8.2,8.2,0,0,0-.48-2.07,3.15,3.15,0,0,0-1-1.28,5.23,5.23,0,0,0-3.55-1h-.77V0H36.69V.73h-.77A5.14,5.14,0,0,0,32.16,2a5.21,5.21,0,0,0-1.22,3.78v16a5.13,5.13,0,0,0,1.23,3.77,5.09,5.09,0,0,0,3.75,1.23h.77v.77H19.35Z"/><path d="M0,26.75H.77a5.13,5.13,0,0,0,3.77-1.23,5.13,5.13,0,0,0,1.23-3.77V5.12a8.2,8.2,0,0,0-.48-2.07,3.15,3.15,0,0,0-1-1.28A5.23,5.23,0,0,0,.77.73H0V0H17.34V.73h-.77A5.14,5.14,0,0,0,12.81,2a5.21,5.21,0,0,0-1.22,3.78v16a5.13,5.13,0,0,0,1.23,3.77,5.09,5.09,0,0,0,3.75,1.23h.77v.77H0Z"/></g></g></svg>